<svg xmlns="http://www.w3.org/2000/svg" viewBox="0 0 26.51 16.8"><defs><style>.cls-1{fill:#fff;}</style></defs><title>behance</title><g id="Layer_2" data-name="Layer 2"><g id="Layer_1-2" data-name="Layer 1"><g id="_1c8fzN.tif" data-name="1c8fzN.tif"><path class="cls-1" d="M0,0H.14C3,0,5.94,0,8.83,0a4.62,4.62,0,0,1,2.84.94,3.82,3.82,0,0,1,1.45,2.49,4.26,4.26,0,0,1-.2,2.43A2.69,2.69,0,0,1,11,7.44l-.14,0a8,8,0,0,1,1,.25,2.73,2.73,0,0,1,1.6,1.81,6.11,6.11,0,0,1,.05,3.78A4.11,4.11,0,0,1,11,16a6.54,6.54,0,0,1-2.61.5H0ZM3.77,13.53h4.5A1.74,1.74,0,0,0,10.21,12a4,4,0,0,0,0-1.25A1.76,1.76,0,0,0,8.27,9.13H3.77Zm0-7,.06,0c1.56,0,3.12,0,4.67,0a1,1,0,0,0,1-.73A3.31,3.31,0,0,0,9.65,4a1.29,1.29,0,0,0-1.4-1.14c-1.41,0-2.81,0-4.22,0H3.77Z"/><path class="cls-1" d="M18,11.33a2.56,2.56,0,0,0,2.51,2.85,3.81,3.81,0,0,0,2-.31,1.62,1.62,0,0,0,1-1.36.34.34,0,0,1,0-.07h2.9c-.06.41-.09.81-.18,1.2A3.71,3.71,0,0,1,24,16.18a8,8,0,0,1-4,.59,6.91,6.91,0,0,1-2.51-.63A5.06,5.06,0,0,1,14.81,13a7.22,7.22,0,0,1,.71-6.23,5.24,5.24,0,0,1,3.77-2.5,7.62,7.62,0,0,1,3.49.15,4.69,4.69,0,0,1,3.12,2.8A8.4,8.4,0,0,1,26.5,11c0,.32,0,.32-.35.32H18Zm5.36-2.21c0-.26-.07-.5-.13-.73a2.19,2.19,0,0,0-1.54-1.67,3.21,3.21,0,0,0-1.65,0,2.88,2.88,0,0,0-2.07,2.43Z"/><path class="cls-1" d="M24,3H17.46c-.21,0-.27-.05-.27-.26,0-.58,0-1.16,0-1.76h6.55c.19,0,.25,0,.24.24C24,1.79,24,2.38,24,3Z"/></g></g></g></svg>