<svg xmlns="http://www.w3.org/2000/svg" viewBox="0 0 18.28 18.27"><defs><style>.cls-1{fill:#fff;}</style></defs><title>inst</title><g id="Layer_2" data-name="Layer 2"><g id="Layer_1-2" data-name="Layer 1"><path class="cls-1" d="M12.64,0h-7A5.63,5.63,0,0,0,0,5.63v7a5.63,5.63,0,0,0,5.63,5.63h7a5.63,5.63,0,0,0,5.63-5.63v-7A5.63,5.63,0,0,0,12.64,0Zm3.88,12A4.55,4.55,0,0,1,12,16.52H6.3A4.55,4.55,0,0,1,1.75,12V6.3A4.55,4.55,0,0,1,6.3,1.75H12A4.55,4.55,0,0,1,16.52,6.3Z"/><path class="cls-1" d="M9.38,4.36A4.81,4.81,0,1,0,14.2,9.17,4.81,4.81,0,0,0,9.38,4.36Zm0,7.71a2.9,2.9,0,1,1,2.9-2.9A2.9,2.9,0,0,1,9.38,12.07Z"/><circle class="cls-1" cx="13.86" cy="4.28" r="1.22"/></g></g></svg>