<svg xmlns="http://www.w3.org/2000/svg" viewBox="0 0 19.86 19.85"><defs><style>.cls-1{fill:#fff;}</style></defs><title>linkedin</title><g id="Layer_2" data-name="Layer 2"><g id="Layer_1-2" data-name="Layer 1"><g id="u7m1c2.tif"><path class="cls-1" d="M11.17,19.85H7.1V6.66H11V8.45l.09,0a.63.63,0,0,1,0-.11,4.23,4.23,0,0,1,3.59-2,6.29,6.29,0,0,1,2.13.23,3.83,3.83,0,0,1,2.72,3,12.25,12.25,0,0,1,.29,2.92q0,3.52,0,7v.26H15.77c0-.11,0-.21,0-.3,0-2.31,0-4.63,0-6.94a5.32,5.32,0,0,0-.28-1.52A1.52,1.52,0,0,0,14.11,10a4.12,4.12,0,0,0-1.27.06,1.88,1.88,0,0,0-1.47,1.54,7.25,7.25,0,0,0-.2,1.59c0,2.12,0,4.25,0,6.37C11.17,19.65,11.17,19.74,11.17,19.85Z"/><path class="cls-1" d="M4.51,19.85H.41V6.67h4.1Z"/><path class="cls-1" d="M4.78,2.4A2.39,2.39,0,1,1,2.4,0,2.4,2.4,0,0,1,4.78,2.4Z"/></g></g></g></svg>