<svg xmlns="http://www.w3.org/2000/svg" viewBox="0 0 92.23 88.13"><title>logo_1</title><g id="Layer_2" data-name="Layer 2"><g id="Layer_1-2" data-name="Layer 1"><path d="M23,35.34l-.59.38a13.12,13.12,0,0,0-1.15.84c-.76.64-1.29,1.36-.31,2.18a.78.78,0,0,0,.24.59.68.68,0,0,0,.65-.1c1.22.35,1.63-.68,1.61-1.75A6,6,0,0,0,23.26,36,5.66,5.66,0,0,0,23,35.34Z"/><path d="M22.34,32.57a2.45,2.45,0,0,0-.57,1.12A7.65,7.65,0,0,0,24.33,32a7.49,7.49,0,0,0-.51-1A13.24,13.24,0,0,0,22.34,32.57Z"/><path d="M25.1,28.53a8,8,0,0,0-1-1.87,10.59,10.59,0,0,0-1.33,1.69c-.51.88-.76,1.79.45,2.2,0,0,.14.39.44.46a.68.68,0,0,0,.57-.33C25.45,30.56,25.46,29.5,25.1,28.53Z"/><path d="M24.56,13.06s.05.43.34.54a.72.72,0,0,0,.62-.21c1.27.14,1.43-.71,1.43-1.66,0-.47-.05-1-.09-1.37s-.07-.67-.07-.67a6.26,6.26,0,0,0-.66.23,5.44,5.44,0,0,0-1.31.77C24,11.38,23.46,12.41,24.56,13.06Z"/><path d="M26.44,9.2a.57.57,0,0,0,.18.38.56.56,0,0,0,.43,0,1,1,0,0,0,.22-.08,1.12,1.12,0,0,0,1.25,0,2.27,2.27,0,0,0,.6-1.08c.13-.46.26-.94.34-1.33,0-.2.07-.37.1-.48l0-.18h-.2a3.81,3.81,0,0,0-.51,0,5.1,5.1,0,0,0-1.48.32,2.38,2.38,0,0,0-1.21.89A1,1,0,0,0,26.45,9,1,1,0,0,0,26.44,9.2Z"/><path d="M29.48,6.28a.72.72,0,0,0,.63.18,1.15,1.15,0,0,0,1.22.34,1.34,1.34,0,0,0,.47-.35,3.22,3.22,0,0,0,.43-.53,15.15,15.15,0,0,0,1-1.81,6.52,6.52,0,0,0-.68-.16,5.87,5.87,0,0,0-1.5-.1A3.81,3.81,0,0,0,30.3,4a1.73,1.73,0,0,0-.61.34,1,1,0,0,0-.32.54,1.35,1.35,0,0,0,.14.77A.74.74,0,0,0,29.48,6.28Z"/><path d="M33.16,3.91a.72.72,0,0,0,.57.33c.73,1,1.51.6,2.22-.08a13.9,13.9,0,0,0,1.36-1.58,5.42,5.42,0,0,0-.64-.29,6.06,6.06,0,0,0-1.44-.39c-1.06-.14-2.14.14-1.9,1.4A.74.74,0,0,0,33.16,3.91Z"/><path d="M37.76,2.8c.54,1.15,1.4.85,2.22.31a13,13,0,0,0,1.6-1.35,7,7,0,0,0-1.94-1c-1-.32-2.11-.23-2.1,1.05,0,0-.33.27-.28.57A.71.71,0,0,0,37.76,2.8Z"/><path d="M42,2c.35,1.23,1.27,1,2.14.65a6.89,6.89,0,0,0,.65-.35L45.35,2c.34-.21.57-.38.57-.38s-.19-.21-.51-.48c-.16-.14-.35-.29-.56-.44a5.74,5.74,0,0,0-.69-.39c-1-.49-2-.54-2.24.71,0,0-.37.22-.37.52A.7.7,0,0,0,42,2Z"/><path d="M46.27,2c.06.63.32,1,.68,1.08a2.27,2.27,0,0,0,1.29,0,9.51,9.51,0,0,0,1.33-.43l.63-.25a6.35,6.35,0,0,0-.4-.58A7,7,0,0,0,48.74.7,2.52,2.52,0,0,0,47.4.14a1.06,1.06,0,0,0-1,.84s-.4.14-.46.45a.57.57,0,0,0,.16.41A.92.92,0,0,0,46.27,2Z"/><path d="M50.93,3.94a2.42,2.42,0,0,0,1.28.2,6.78,6.78,0,0,0,.73-.08l.66-.1c.39-.07.67-.15.67-.15s-.11-.26-.3-.63c-.1-.18-.22-.39-.36-.61A5.76,5.76,0,0,0,53.13,2a3.48,3.48,0,0,0-.58-.52,1.79,1.79,0,0,0-.63-.28.93.93,0,0,0-.61.07,1.38,1.38,0,0,0-.54.56s-.42.07-.54.35a.71.71,0,0,0,.22.62A1.13,1.13,0,0,0,50.93,3.94Z"/><path d="M54.73,5.52A2.27,2.27,0,0,0,56,5.94a8.85,8.85,0,0,0,1.41,0l.68,0s-.06-.28-.19-.68a7.25,7.25,0,0,0-.63-1.35,2.51,2.51,0,0,0-1-1A1.06,1.06,0,0,0,55,3.37a.72.72,0,0,0-.59.25.72.72,0,0,0,.11.65A1.1,1.1,0,0,0,54.73,5.52Z"/><path d="M58.25,7.71a2.41,2.41,0,0,0,1.17.6,11.65,11.65,0,0,0,1.39.24c.4,0,.68.06.68.06s0-.28-.1-.69A6,6,0,0,0,61,6.5a2.32,2.32,0,0,0-.89-1.12,1,1,0,0,0-1.28.24.75.75,0,0,0-.62.16.7.7,0,0,0,0,.65A1.12,1.12,0,0,0,58.25,7.71Z"/><path d="M62.46,11.14c.22.1.46.18.69.26l.63.21c.38.12.66.18.66.18s0-.28,0-.7a5.44,5.44,0,0,0-.18-1.48c-.26-1-1-1.92-2-1.23a.72.72,0,0,0-.63.07.57.57,0,0,0-.12.42.93.93,0,0,0,0,.23C60.86,10.2,61.58,10.72,62.46,11.14Z"/><path d="M64.39,12.29c-.88.94-.27,1.6.52,2.17.2.14.42.27.63.38l.58.32c.36.18.62.29.62.29s.08-.27.15-.68A5.64,5.64,0,0,0,67,13.3c-.06-1.07-.58-2-1.75-1.57a.92.92,0,0,0-.22-.09.58.58,0,0,0-.42,0,.55.55,0,0,0-.2.39A1.16,1.16,0,0,0,64.39,12.29Z"/><path d="M66.67,15.72a1.08,1.08,0,0,0,0,.23,1.13,1.13,0,0,0-.57,1.1c.6-.52,1.17-1,1.67-1.56l-.18,0a.78.78,0,0,0-.2-.12.57.57,0,0,0-.42,0A.56.56,0,0,0,66.67,15.72Z"/><path d="M69.2,23.18c.3.27.52.44.52.44s.14-.25.32-.63a6.32,6.32,0,0,0,.47-1.4,1.89,1.89,0,0,0-.24-1.69c-.73.71-1.43,1.44-2.14,2.16l.07.09A10.61,10.61,0,0,0,69.2,23.18Z"/><path d="M69.92,23.58c-.33.08-.43.49-.43.49-1.17.5-.88,1.41-.34,2.24a11.18,11.18,0,0,0,1.37,1.6,7.6,7.6,0,0,0,1-1.94c.32-1,.25-2.06-1-2.08C70.49,23.88,70.22,23.54,69.92,23.58Z"/><path d="M70.73,27.88c-.34,0-.48.45-.48.45-1.21.39-1,1.33-.53,2.2a9.44,9.44,0,0,0,.79,1.18c.24.32.43.53.43.53a7.37,7.37,0,0,0,1.15-1.85A2.33,2.33,0,0,0,72.3,29a1,1,0,0,0-1-.77S71,27.87,70.73,27.88Z"/><path d="M71.06,41.45S71,41,70.66,41a.72.72,0,0,0-.59.28c-1.28,0-1.34,1-1.16,1.94a10.88,10.88,0,0,0,.4,1.37c.14.38.25.64.25.64s.24-.15.57-.4a6.24,6.24,0,0,0,1.08-1C71.89,43,72.23,42,71.06,41.45Z"/><path d="M68,48.66c.09.39.18.66.18.66s.26-.12.62-.34a7.28,7.28,0,0,0,1.17-.9c.76-.73,1.21-1.7.1-2.32,0,0-.07-.42-.36-.53a.69.69,0,0,0-.61.22c-1.26-.11-1.45.82-1.36,1.81A8.3,8.3,0,0,0,68,48.66Z"/><path d="M68.71,50s0-.42-.29-.57a.71.71,0,0,0-.64.16,1.1,1.1,0,0,0-1.22.36,2.23,2.23,0,0,0-.31,1.29,8.83,8.83,0,0,0,.09,1.41c.06.4.11.68.11.68a6.07,6.07,0,0,0,.64-.27,7.36,7.36,0,0,0,1.28-.76C69.19,51.61,69.76,50.71,68.71,50Z"/><path d="M66.85,54a.74.74,0,0,0-.22-.59.72.72,0,0,0-.65.08c-1.21-.38-1.57.48-1.72,1.45a11.78,11.78,0,0,0-.08,1.41c0,.4,0,.69,0,.69s.28-.06.67-.19a6.11,6.11,0,0,0,1.36-.6,2.43,2.43,0,0,0,1-1A1.06,1.06,0,0,0,66.85,54Z"/><path d="M58.44,63.54a.7.7,0,0,0-.63-.19c-.94-.83-1.62-.25-2.15.59A8.49,8.49,0,0,0,55,65.16l-.28.62.19,0a4.36,4.36,0,0,0,.5.09,7.17,7.17,0,0,0,1.49,0c1-.12,2-.61,1.52-1.79A.75.75,0,0,0,58.44,63.54Z"/><path d="M54.8,66a.72.72,0,0,0-.59-.3,1.09,1.09,0,0,0-1.15-.53,2.18,2.18,0,0,0-1.07.74,12.3,12.3,0,0,0-.88,1.1c-.23.33-.38.57-.38.57s.26.11.65.24a6.17,6.17,0,0,0,1.46.31,2.59,2.59,0,0,0,1.42-.25,1.07,1.07,0,0,0,.38-1.26A.74.74,0,0,0,54.8,66Z"/><path d="M50.28,67.35c-.3-.56-.67-.76-1-.73a1.62,1.62,0,0,0-.58.18,3.28,3.28,0,0,0-.6.37,13.89,13.89,0,0,0-1,.94c-.29.28-.47.49-.47.49s.24.16.6.36a5.56,5.56,0,0,0,1.39.54c1,.28,2.12.09,2-1.17a.71.71,0,0,0,.25-.58A.73.73,0,0,0,50.28,67.35Z"/><path d="M46.1,68.33a1.15,1.15,0,0,0-.91-.89,2.37,2.37,0,0,0-1.24.34,9.66,9.66,0,0,0-1.2.73c-.33.21-.56.38-.56.38s.2.21.52.48a6.37,6.37,0,0,0,1.27.79,2.31,2.31,0,0,0,1.44.24.94.94,0,0,0,.53-.31,1.4,1.4,0,0,0,.25-.73s.36-.24.34-.54S46.1,68.33,46.1,68.33Z"/><path d="M41.84,68.54c-.17-1.24-1.06-1.24-2-1a8.53,8.53,0,0,0-1.32.48l-.45.2-.17.08a5.25,5.25,0,0,0,.43.56,7.09,7.09,0,0,0,1.09,1c.87.6,2,.88,2.33-.36,0,0,.4-.16.44-.46A.71.71,0,0,0,41.84,68.54Z"/><path d="M37.61,67.93a1.09,1.09,0,0,0-.51-1.16,2.13,2.13,0,0,0-1.29-.15,10,10,0,0,0-1.38.23l-.67.17.08.18c.05.11.14.26.24.44A6.85,6.85,0,0,0,35,68.84a2.59,2.59,0,0,0,1.24.75,1.05,1.05,0,0,0,1.12-.68s.42-.08.52-.37A.71.71,0,0,0,37.61,67.93Z"/><path d="M33.27,65.32A2.3,2.3,0,0,0,32,64.93c-.49,0-1-.05-1.4,0s-.69,0-.69,0a6.9,6.9,0,0,0,.2.67c.07.2.15.42.26.66a3.75,3.75,0,0,0,.39.7,2.5,2.5,0,0,0,1.08,1,1.07,1.07,0,0,0,1.23-.47s.43,0,.58-.26a.73.73,0,0,0-.13-.65A1.1,1.1,0,0,0,33.27,65.32Z"/><path d="M23.47,58.42a.76.76,0,0,0,.19.14.56.56,0,0,0,.42.06.57.57,0,0,0,.28-.33,1.1,1.1,0,0,0,.06-.22c1.07-.7.71-1.37.18-2.12-.27-.37-.59-.76-.84-1.06l-.43-.52a5.49,5.49,0,0,0-.43.55,4.54,4.54,0,0,0-.36.62,3.88,3.88,0,0,0-.29.76C21.94,57.37,22.2,58.6,23.47,58.42Z"/><path d="M23.13,54.36a.73.73,0,0,0,.54-.37c1.24-.22,1.19-1,1-1.92-.05-.23-.12-.46-.2-.68s-.13-.44-.2-.63L24,50.11a5.12,5.12,0,0,0-.6.37,7.12,7.12,0,0,0-.56.45,5.66,5.66,0,0,0-.55.6c-.68.87-.92,2.07.33,2.4C22.65,53.93,22.82,54.33,23.13,54.36Z"/><path d="M24.7,46.73a4.3,4.3,0,0,0-.71.39c-.91.61-1.53,1.63-.47,2.36a1,1,0,0,0,0,.23.44.44,0,0,0,.7.29,1.06,1.06,0,0,0,.2-.12c1.25.22,1.48-.57,1.56-1.51,0-.24,0-.48,0-.71s0-.47,0-.66v-.68a5.37,5.37,0,0,0-.68.17A4.84,4.84,0,0,0,24.7,46.73Z"/><path d="M27.73,43.29a5.69,5.69,0,0,0-.79.16c-1.06.3-1.95,1.09-1.17,2.11,0,0-.1.42.12.63a.72.72,0,0,0,.65,0c1.12.59,1.58-.1,1.94-1,.09-.22.18-.44.25-.67s.15-.43.21-.62l.21-.64a5,5,0,0,0-.7-.06A7,7,0,0,0,27.73,43.29Z"/><path d="M29,43.15a.57.57,0,0,0,.38.22,1.12,1.12,0,0,0,.23,0c.88.92,1.51.42,2.14-.26l.23-.27.23-.26.41-.51c.24-.33.42-.53.42-.53a3.24,3.24,0,0,0-.63-.3,6.78,6.78,0,0,0-.68-.22,3.59,3.59,0,0,0-.81-.13c-1.11-.08-2.24.39-1.82,1.61a1,1,0,0,0-.1.21A.56.56,0,0,0,29,43.15Z"/><path d="M33.49,41.8c.24.6.55.8.9.86A1.23,1.23,0,0,0,35,42.6l.3-.12.31-.13c.42-.2.85-.48,1.2-.66l.58-.35a6.12,6.12,0,0,0-.48-.5,5.07,5.07,0,0,0-.55-.46,5.77,5.77,0,0,0-.7-.4c-1-.49-2.23-.47-2.28.83,0,0-.35.25-.32.55A.74.74,0,0,0,33.49,41.8Z"/><path d="M47.55,47c-.62-.78-1.43-1.19-2.08-1.93a1.07,1.07,0,0,0,.12,1.21,2.29,2.29,0,0,0,1.19.57C47,46.88,47.3,46.93,47.55,47Z"/><path d="M66.14,56.87l-.17-.2c-1.32.55-.37,1.41.42,2.24a7.43,7.43,0,0,0,.9-.24s-.13-.26-.34-.61A11.19,11.19,0,0,0,66.14,56.87Z"/><path d="M69.48,60.48a5.93,5.93,0,0,0,1.43-.4,4.25,4.25,0,0,0,.46-.21l.17-.09-.44-.54a12.37,12.37,0,0,0-1-1c-.73-.67-1.53-1.12-2.21,0a.75.75,0,0,0-.55.31.7.7,0,0,0,.18.64C67.36,60.37,68.42,60.64,69.48,60.48Z"/><path d="M17.29,42.63c-.07.07-.71.06-.86.13s-.5.21-.58.53c-.16.66-1.82,1.26-2.37,1.54s-1.27.66-1.92.94l-.14.06V46A3.25,3.25,0,0,0,12,47.82l0,0a.74.74,0,0,0,.33.17,2.06,2.06,0,0,0,.55,1.2l.05,0a1.16,1.16,0,0,0,.82.26,1.57,1.57,0,0,0,.83.87,1,1,0,0,0,.92-.2c.24-.11,1.78-.9,3.11-4.33l0,0a1.79,1.79,0,0,0,.44-1.54,1.25,1.25,0,0,0,.24-1.21.93.93,0,0,0,.24-.08c1.16.52,1.69-.4,1.85-1.45a6.3,6.3,0,0,0,0-1.48c0-.41-.09-.69-.09-.69s-.27.1-.65.26a11.21,11.21,0,0,0-1.3.63c-.85.5-1.51,1.16-.69,2.1A1.25,1.25,0,0,0,17.29,42.63Zm-5,4.88h0a2.64,2.64,0,0,1-.46-1.4A16.84,16.84,0,0,0,15.71,44c.76-.7.8-.11.8-.11a13.54,13.54,0,0,1-4,3.73A.29.29,0,0,1,12.34,47.51Zm1.53,1.55a.77.77,0,0,1-.62-.15,1.64,1.64,0,0,1-.45-1,14,14,0,0,0,3.7-3.32.5.5,0,0,1,.82.57A12.29,12.29,0,0,1,13.87,49.06Zm4.22-2.92c-1.29,3.05-2.7,3.64-2.71,3.65l-.05,0a.62.62,0,0,1-.56.15,1.14,1.14,0,0,1-.56-.61,13.34,13.34,0,0,0,3.65-4.26A.93.93,0,0,1,18.09,46.14Z"/><path d="M84.87,59.1a1.05,1.05,0,0,0-.71-.67c-.23-.14-1.81-1-5.52-.11v0a1.85,1.85,0,0,0-1.57.52,1.29,1.29,0,0,0-1.39,1l-.32-.22c-.33-.25-.76-.54-1.18-.79A2.42,2.42,0,0,0,73,58.33a.83.83,0,0,0-.51.21,1.49,1.49,0,0,0-.41.63s-.39.12-.48.41a.69.69,0,0,0,.3.59,1,1,0,0,0,.73,1.1,1.88,1.88,0,0,0,.7.05,3.93,3.93,0,0,0,.77-.2,5.65,5.65,0,0,0,1.32-.72l.25-.2a1.29,1.29,0,0,0,1.08,1.17s.18.27.22.32a1.86,1.86,0,0,0,.3.28,1.09,1.09,0,0,0,.85.27s0,0,.1,0a.6.6,0,0,1,.17.05l.33.13.62.28q.59.25,1.18.53a21.12,21.12,0,0,1,2.27,1.24l.13.08L83,64.4c.11-.09,1.1-.87,1.2-1.6v0a.78.78,0,0,0,0-.39,2.13,2.13,0,0,0,.7-1.17v-.07a1.2,1.2,0,0,0-.26-.85A1.62,1.62,0,0,0,84.87,59.1Zm-1.09,3.65A2.73,2.73,0,0,1,82.85,64c-1.9-1.18-4.21-1.82-4.69-2.25-.07-.07,0-.36.06-.39,1.58-.49,5.12,1,5.51,1.2a.3.3,0,0,1,0,.2Zm.07-.65a14.47,14.47,0,0,0-5-1.21.52.52,0,0,1,0-1,12.72,12.72,0,0,1,5.36.66.8.8,0,0,1,.23.61A1.7,1.7,0,0,1,83.85,62.1Zm.41-2a13.17,13.17,0,0,0-5.35-.65.34.34,0,0,1-.36-.39.35.35,0,0,1,.27-.29c3.68-.85,5.11.07,5.13.08l.05,0a.65.65,0,0,1,.46.39A1.18,1.18,0,0,1,84.25,60.06Z"/><path d="M91.48,85.33a1.51,1.51,0,0,0-.27-.12,3.47,3.47,0,0,0-2.77-4.87c1.85-1.46,1.75-5.23,1-7.13-.83-2.22-2.87-6-5.79-5a4.87,4.87,0,0,0,1.15-1.06c-.08.1-.87,0-1-.06a8.25,8.25,0,0,1-1-.2,10.8,10.8,0,0,1-1.88-.7,26.24,26.24,0,0,1-2.4-1.42c-1.63-1-4.33-2.33-6.09-1.22a3.78,3.78,0,0,0-4-2.47L66.3,58.93a5.78,5.78,0,0,1-1.14.11l-.39,0a2.25,2.25,0,0,1-1.15.9,5.85,5.85,0,0,1-1.43.42c-.41.07-.7.09-.7.09s0-.28.07-.68a12.23,12.23,0,0,1,.26-1.39,3.32,3.32,0,0,1,.25-.66,1.5,1.5,0,0,1,.36-.5.92.92,0,0,1,.21-.13h-.07a7,7,0,0,1-1.46,0c-1-.11-2-.58-1.53-1.76a.7.7,0,0,1,0-.66.75.75,0,0,1,.6-.19,1,1,0,0,1,1.46-.24L48.7,41.33,61.54,28.49,65,31.93l-2.7,8.57,2.87,2.87,2.7-8.58a13.37,13.37,0,0,0,2.79,2,.85.85,0,0,0-.08.11c-.63.07-.94.35-1.05.72A2.27,2.27,0,0,0,69.6,39a9.94,9.94,0,0,0,.53,1.32c.18.36.32.61.32.61s.22-.17.53-.46a6.81,6.81,0,0,0,1-1.12A2.51,2.51,0,0,0,72.45,38a1,1,0,0,0-.11-.4,13.41,13.41,0,0,0,14.26-22l-5.4-5.4a.88.88,0,0,0,.91-1.46l-.45-.45A2.36,2.36,0,1,0,78.4,5l-.45-.45A.88.88,0,1,0,76.7,5.83l.41.41-9.24,9.24c1,0,1.25.89,1.16,1.85a6.21,6.21,0,0,1-.11.77c-.06.25-.13.48-.19.68-.13.4-.24.66-.24.66s-.24-.15-.57-.38a12.31,12.31,0,0,1-1.11-.88,3.34,3.34,0,0,1-.46-.53,1.8,1.8,0,0,1-.23-.41L45.37,38,24.94,17.57c1-.19,1-1,.84-1.94a11.52,11.52,0,0,0-.42-1.33c-.14-.37-.25-.64-.25-.64a6.85,6.85,0,0,0-.57.4,6,6,0,0,0-1.07,1,3.5,3.5,0,0,0-.37.6L13.41,6l.41-.41a.88.88,0,0,0-1.25-1.25l-.45.45A2.36,2.36,0,1,0,8.87,8.08l-.45.45A.88.88,0,0,0,9.32,10l-5.4,5.4A13.41,13.41,0,0,0,22.47,34.76h0a.77.77,0,0,0,.36.52.68.68,0,0,0,.62-.23c1.28.1,1.45-1,1.22-2,0-.09-.05-.18-.08-.27a12.87,12.87,0,0,1-2.15,2,1.08,1.08,0,0,1-.68-1,13.31,13.31,0,0,1-14.29-3h0A13.33,13.33,0,0,1,5.26,14.9l5.17-5.17L23.59,22.89A7.57,7.57,0,0,0,22.82,24c-.49.91-.68,1.88.56,2.21,0,0,.17.38.47.43a.7.7,0,0,0,.54-.37c1-.17,1.16-.86,1-1.61l3.18,3.18-4.2,4.2a6.31,6.31,0,0,1,.22.63l4.4-4.4,13,13-.73.73-.11-.2a6.52,6.52,0,0,0-.93-1.18A2.54,2.54,0,0,0,39,40a1.06,1.06,0,0,0-1.09.75,1,1,0,0,0-.22.09.56.56,0,0,0-.27.33.55.55,0,0,0,.13.41,1,1,0,0,0,.16.17c0,.64.24,1,.57,1.12a2.19,2.19,0,0,0,1.26.08,8.68,8.68,0,0,0,1.17-.22l-16,16-.19-.1-.17-.09-.06.19a3.78,3.78,0,0,0-.12.5v.05l-2,2A3.79,3.79,0,0,0,18,63.91a12.07,12.07,0,0,0-10.22-.69A4.56,4.56,0,0,0,5.56,68c-2.4-1.05-3.72.29-4.41,1.64a12.08,12.08,0,0,0,.47,10.63l-.08.07A3.37,3.37,0,0,0,.81,84a1.45,1.45,0,0,0-.21.17A1.46,1.46,0,1,0,2.9,85.9a3.37,3.37,0,0,0,3.42-.82L6.39,85a12.08,12.08,0,0,0,9.23,1,5,5,0,0,0,2.81-4.8c2.6,1.33,4-.38,4.74-1.81a12,12,0,0,0,.54-1.44l0-.12v0a12.07,12.07,0,0,0-1-9.17,3.79,3.79,0,0,0,2.66-4.06l1.38-1.38a4.35,4.35,0,0,0,.28,1c.38,1,1.19,1.81,2.15,1a.7.7,0,0,0,.62-.14.74.74,0,0,0,0-.66c.55-1.17-.23-1.59-1.13-1.9-.23-.07-.48-.13-.71-.18l-.28-.07L45.37,44.66l0,0a.55.55,0,0,1,.07-.38.74.74,0,0,1,.61-.17c.94-.87,1.73-.13,2.18.82a7.44,7.44,0,0,1,.6,2.1s-.53,0-1.18-.09L48.75,48c-.16.79.56,1.25,1.38,1.5l.12,0a4.37,4.37,0,0,1-.79-.82h0l-.33-.4,0,0a3.74,3.74,0,0,0-.35-.36,1.74,1.74,0,0,1,.18-.42.69.69,0,0,1,.05-.65.76.76,0,0,1,.63-.1c1-.75,1.66,0,2.06.94a9.7,9.7,0,0,1,.57,2.08,8.92,8.92,0,0,1-2-.24L61.14,60.44l-.14,0a1.13,1.13,0,0,0-1.27-.14A2.44,2.44,0,0,0,59,61.39a9.54,9.54,0,0,0-.46,1.33c-.12.38-.18.65-.18.65s.28,0,.71,0a6.5,6.5,0,0,0,1.47-.2,2.3,2.3,0,0,0,1.25-.7,1,1,0,0,0,0-1.3,1.06,1.06,0,0,0,0-.16l3.36,3.36a3.78,3.78,0,0,0,2.57,4c-1.36,1.89.27,5.07,1.44,6.72a12.6,12.6,0,0,1,1.34,2.43A10,10,0,0,1,71,79.21c.05.23.4,1.62.19,1.77a4.91,4.91,0,0,0,1.15-1.3c-.75,2.82,2.88,4.8,5.06,5.61,1.93.72,5.75.81,7.17-1.09A3.47,3.47,0,0,0,89.3,87a1.5,1.5,0,1,0,2.19-1.72ZM68.06,22a2.15,2.15,0,0,1-.46-1,1.11,1.11,0,0,1,.71-1.08.69.69,0,0,1,.38-.53.76.76,0,0,1,.6.24,1.2,1.2,0,0,1,.9.23l9.91-9.91,5.17,5.17A13.33,13.33,0,0,1,83,31h0a13.29,13.29,0,0,1-10.77,3.83c.48-.92.63-2-.62-2.21,0,0-.19-.38-.5-.4a.7.7,0,0,0-.52.4c-1,.23-1.13.93-.9,1.7a13.23,13.23,0,0,1-2.59-1.09L62,28.06ZM21.17,77.63a4.23,4.23,0,0,1-3.69,1.18,1.68,1.68,0,1,0-1.05,1.07,4.24,4.24,0,1,1-8.14-1.26,1.68,1.68,0,1,0-.45-.45A4.24,4.24,0,1,1,6.8,70a1.68,1.68,0,1,0,1.14-1.18,4.24,4.24,0,1,1,8.17,1.33,1.68,1.68,0,1,0,.49.49,4.24,4.24,0,0,1,4.57,6.94Zm23.5-33.08a12.46,12.46,0,0,1-1.41,0,3.29,3.29,0,0,1-.69-.12,1.42,1.42,0,0,1-.55-.25,1.14,1.14,0,0,1-.29-1.24.7.7,0,0,1-.14-.64c.15-.27.58-.28.58-.28a1,1,0,0,1,1.22-.47,2.31,2.31,0,0,1,1.08,1,6,6,0,0,1,.67,1.33,6.79,6.79,0,0,1,.21.66Zm10.41,7.89a7.63,7.63,0,0,1-1.44-.18c-1-.24-1.86-.81-1.28-1.93a.69.69,0,0,1,0-.66.77.77,0,0,1,.62-.12c1-.8,1.65-.07,2.1.85a8.43,8.43,0,0,1,.5,1.37c.11.4.17.68.17.68A6.27,6.27,0,0,1,55.08,52.44Zm3.66,2.44a6.49,6.49,0,0,1-1.46-.1c-1-.19-1.92-.71-1.39-1.87a.69.69,0,0,1,0-.66.76.76,0,0,1,.62-.16c1-.84,1.64-.16,2.13.73a10.18,10.18,0,0,1,.58,1.33c.14.39.21.67.21.67S59.15,54.87,58.74,54.88ZM84,79.94a2.57,2.57,0,0,0-1.16-.43,1.7,1.7,0,0,0-1.42.42,1.47,1.47,0,0,0,2,2.14c-.24.8-1.09,1.5-3.3,1.6a5.83,5.83,0,0,1-6-4s0,0,0-.09a1.47,1.47,0,1,0,2-2h0s-1.85-1.6-3.24.84a4.26,4.26,0,0,0-.29-2.81c-1.39-3.17-4.44-6.48-1.54-6.87-.45.09-1.15.36-.9,1.21.36,1.22,2.86.76,2.73-.49a4,4,0,0,0-.17-.8,4,4,0,0,0,.67.13c1.25.13,1.71-2.37.49-2.73-.85-.25-1.12.45-1.21.9.39-2.91,3.7.14,6.87,1.54a4.23,4.23,0,0,0,2.95.26,2,2,0,0,0-.66,3.13h0a1.45,1.45,0,0,0,.26.36,1.47,1.47,0,1,0,1.74-2.33h.09a5.83,5.83,0,0,1,4,6c-.09,2.21-.8,3.06-1.6,3.3a1.47,1.47,0,0,0-2.14-2,1.7,1.7,0,0,0-.41,1.42,2.62,2.62,0,0,0,.4,1.12,2.59,2.59,0,0,0,1.52,1,.88.88,0,0,0-.64.64A2.63,2.63,0,0,0,84,79.94Z"/></g></g></svg>