<svg xmlns="http://www.w3.org/2000/svg" viewBox="0 0 1526.82 463.41"><defs><style>.cls-1{fill:#060606;}</style></defs><title>logo</title><g id="Layer_2" data-name="Layer 2"><g id="Layer_1-2" data-name="Layer 1"><path class="cls-1" d="M184.75,180.71a75.79,75.79,0,0,1-9.41,36.94c-5.69,10.26-15.53,19.53-28.46,26.8a77.06,77.06,0,0,1-38.29,9.88H24.74v49.79a66.14,66.14,0,0,0,8.21,32H0a66.08,66.08,0,0,0,8.21-32V138.87A65.76,65.76,0,0,0,.05,107.09H108.59A77,77,0,0,1,146.88,117c12.93,7.27,22.76,16.53,28.46,26.79A75.73,75.73,0,0,1,184.75,180.71Zm-16.36,0v-.18c0-.44,0-.89,0-1.33l0-.65a74.11,74.11,0,0,0-8.42-33.35,63.41,63.41,0,0,0-25.23-25.43,71.88,71.88,0,0,0-23.46-8.06c-2.16-.45-4.46-.84-6.83-1.11v0l-.68-.07-1.14-.12-.77-.07c-1.19-.12-2.38-.24-3.7-.29H24.8v54.09h-.1v43.89l0,3.07V251H94.82a98.83,98.83,0,0,0,16.25-1.3,72.15,72.15,0,0,0,23.59-8.09,63.3,63.3,0,0,0,25.22-25.42,74.06,74.06,0,0,0,8.42-33.32l0-.62c0-.43,0-.87,0-1.45v-.09Z"/><path class="cls-1" d="M356.5,336a24,24,0,0,0,1.85-22.46L341,273.11H209.76l-.82,1.82-17.2,38.4a23.44,23.44,0,0,0,2,22.71H174.9a113.13,113.13,0,0,0,13.83-23.17L284.25,98.44h1.53L363,281.88l13.67,32.47A123.59,123.59,0,0,0,388.43,336ZM338.9,269.72l-1.74-4.23L280,126.49l-2.75-6.69-2.89,6.63-60.6,139-1.87,4.29Z"/><path class="cls-1" d="M585,107.09a62.21,62.21,0,0,0-7.48,29.62V250c0,34.6-13.22,62.78-35.37,75.38-12.57,7.14-29,10.77-48.75,10.77l-2.73,0c-20-.34-36.37-4.39-50.09-12.37a70.63,70.63,0,0,1-30.72-35.07c-4.55-11.46-4.93-23.58-4.93-34V137.89a62.21,62.21,0,0,0-8.14-30.81h32.81a62.16,62.16,0,0,0-8.15,30.81v26.28h-.14v3.08c0,17.78.14,49.63.14,57.48V256.6c0,7.69,0,15.65,1.92,23.54a64.79,64.79,0,0,0,30.37,40.47c12.35,7.29,27.36,11,44.63,11,2.73,0,5.55-.09,8.39-.28,20.1-1.29,35.67-7.37,46.27-18.06,10.8-10.9,18-26.87,20.24-45,1-7.91.93-16,.88-23.83,0-1.72,0-3.46,0-5.17v-3.47l0-3.07V136.63a62.25,62.25,0,0,0-7.44-29.55Z"/><path class="cls-1" d="M983.92,462.91q-5,.49-10.4.49c-32.17,0-61.46-5-87.1-14.86a311.16,311.16,0,0,1-69.92-38.23L814,408.54l-2.8,1.15c-25.3,10.55-54.25,15.89-86,15.89-43.53,0-81.33-9.54-112.32-28.36s-54.49-44.57-70.05-76.48c-15.66-32.09-23.59-68.21-23.59-107.34,0-39.49,7.93-75.82,23.59-108C558.43,73.52,582,47.7,612.93,28.69S681.69,0,725.24,0,806.5,9.65,837.49,28.69,892,73.48,907.55,105.44c15.66,32.14,23.6,68.47,23.6,108,0,38.69-8.13,74.58-24.15,106.68a186.35,186.35,0,0,1-64.81,73l-6.55,4.48,6.52,4.55,1.45,1C867.8,420.55,890.82,434.65,912,445,935.79,456.52,960,462.55,983.92,462.91Zm-154.41-76a176.19,176.19,0,0,0,52.19-69.07c13.41-31.3,20.23-66.44,20.24-104.45,0-38.38-6.81-73.74-20.24-105.06-13.53-31.54-33.8-57.08-60.24-75.93S762.54,4,725.22,4s-69.68,9.58-96.27,28.47-46.72,44.41-60.18,75.93c-13.44,31.32-20.25,66.66-20.25,105.06,0,38,6.81,73.11,20.24,104.45,1.84,4.3,4,8.23,6,12.07l1.39,2.6,1.79,3.38-.25.24,2.16,3.67A170.61,170.61,0,0,0,629,393.51c26.59,18.69,59,28.16,96.26,28.16,27.4,0,52.3-5.17,74-15.34l7.81-3.66-6.68-5.45c-12.94-10.55-31.75-26.46-45.78-39.49-16.07-14.75-28.52-25.71-38-33.49a162.59,162.59,0,0,0-31.66-20.51c-10.93-5.3-19.13-7.19-31.33-7.19a67.59,67.59,0,0,0-11,1,108.74,108.74,0,0,1,24.55-2.65c11.77,0,24.62,3.14,38.18,9.32a251,251,0,0,1,41,23.86c13.49,9.6,31,22.95,51.92,39.6,3.31,2.71,14.22,11.24,24.58,19.34l3.39,2.63Z"/><path class="cls-1" d="M885.18,107.09a62.25,62.25,0,0,0-7.44,29.55v96.13l0,3.07v3.47c0,1.71,0,3.45,0,5.17,0,7.83-.1,15.92.88,23.83,2.25,18.1,9.45,34.07,20.24,45C909.41,324,925,330,945.07,331.33c2.84.19,5.67.28,8.39.28,17.27,0,32.29-3.71,44.63-11a64.79,64.79,0,0,0,30.37-40.47c2-7.89,1.93-15.85,1.92-23.54V224.74c0-7.86.09-39.7.14-57.48v-3.08h-.14V137.89a62.16,62.16,0,0,0-8.15-30.81h32.81a62.21,62.21,0,0,0-8.14,30.81V254.64c0,10.45-.38,22.57-4.93,34a70.63,70.63,0,0,1-30.72,35.07c-13.73,8-30.11,12-50.09,12.37l-2.73,0c-19.77,0-36.18-3.62-48.75-10.77-22.14-12.61-35.37-40.78-35.37-75.38V136.71a62.21,62.21,0,0,0-7.48-29.62Z"/><path class="cls-1" d="M1204.46,332.66h33a52.23,52.23,0,0,0,26.28-7.08l-1.27,10.48h-175a50.88,50.88,0,0,0,8-27.42V134.48a50.82,50.82,0,0,0-8-27.41h175l1.27,10.47a52.33,52.33,0,0,0-26.28-7.08h-125.4V196.4h64a45.8,45.8,0,0,0,24.66-7.24V207l0,0a45.72,45.72,0,0,0-24.66-7.23h-64V332.65h92.39Z"/><path class="cls-1" d="M1526.82,331.39c-49.37,40.91-80.25-26.85-114.47-58.72-12.73-11.85-32.82-17.87-46.22-17.87h-46.28v49.88a65.72,65.72,0,0,0,8.21,31.86h-33a65.77,65.77,0,0,0,8.21-31.86V139.34a65.79,65.79,0,0,0-8.16-31.79h108.53a76.93,76.93,0,0,1,38.3,9.9c12.93,7.26,22.76,16.53,28.45,26.79a77.17,77.17,0,0,1,0,73.88c-5.69,10.27-15.54,19.53-28.46,26.8a76.29,76.29,0,0,1-26.44,8.94l-6.41.94h-1.93C1451.14,263.36,1480.32,359.28,1526.82,331.39Zm-120.62-81.21a72.25,72.25,0,0,0,23.59-8.09A63.4,63.4,0,0,0,1455,216.67a74.14,74.14,0,0,0,8.42-33.35l0-.64c0-.44,0-.9,0-1.24l0-.3V181c0-.44,0-.88,0-1.32l0-.65a74.3,74.3,0,0,0-8.42-33.37,63.41,63.41,0,0,0-25.23-25.43,72.32,72.32,0,0,0-23.46-8.06c-2.16-.45-4.45-.84-6.83-1.11v.05l-.69-.07-1.13-.13-.82-.07c-1.17-.12-2.34-.23-3.65-.28h-73.29v54.08h-.1v43.89l0,3.07v39.89h70.08A99.08,99.08,0,0,0,1406.19,250.18Z"/></g></g></svg>